<svg width="16" height="16" viewBox="0 0 16 16" fill="none" xmlns="http://www.w3.org/2000/svg">
<path d="M8.00065 1.33337C11.6827 1.33337 14.6673 4.31804 14.6673 8.00004C14.6673 11.682 11.6827 14.6667 8.00065 14.6667C4.31865 14.6667 1.33398 11.682 1.33398 8.00004C1.33398 4.31804 4.31865 1.33337 8.00065 1.33337ZM8.00065 2.66671C6.58616 2.66671 5.22961 3.22861 4.22941 4.2288C3.22922 5.229 2.66732 6.58555 2.66732 8.00004C2.66732 9.41453 3.22922 10.7711 4.22941 11.7713C5.22961 12.7715 6.58616 13.3334 8.00065 13.3334C9.41514 13.3334 10.7717 12.7715 11.7719 11.7713C12.7721 10.7711 13.334 9.41453 13.334 8.00004C13.334 6.58555 12.7721 5.229 11.7719 4.2288C10.7717 3.22861 9.41514 2.66671 8.00065 2.66671ZM10.556 4.89137C10.6325 4.83774 10.7254 4.81281 10.8185 4.82098C10.9115 4.82915 10.9987 4.86989 11.0647 4.93604C11.1305 5.00187 11.1708 5.0889 11.1785 5.18168C11.1862 5.27445 11.1607 5.36694 11.1067 5.44271C9.65332 7.47337 8.85332 8.56137 8.70798 8.70737C8.52026 8.89472 8.26587 8.99994 8.00065 8.99994C7.73543 8.99994 7.48105 8.89472 7.29332 8.70737C7.10597 8.51965 7.00075 8.26526 7.00075 8.00004C7.00075 7.73482 7.10597 7.48044 7.29332 7.29271C7.54265 7.04404 8.62998 6.24337 10.556 4.89137ZM11.6673 7.33337C11.8441 7.33337 12.0137 7.40361 12.1387 7.52864C12.2637 7.65366 12.334 7.82323 12.334 8.00004C12.334 8.17685 12.2637 8.34642 12.1387 8.47145C12.0137 8.59647 11.8441 8.66671 11.6673 8.66671C11.4905 8.66671 11.3209 8.59647 11.1959 8.47145C11.0709 8.34642 11.0007 8.17685 11.0007 8.00004C11.0007 7.82323 11.0709 7.65366 11.1959 7.52864C11.3209 7.40361 11.4905 7.33337 11.6673 7.33337ZM4.33398 7.33337C4.5108 7.33337 4.68036 7.40361 4.80539 7.52864C4.93041 7.65366 5.00065 7.82323 5.00065 8.00004C5.00065 8.17685 4.93041 8.34642 4.80539 8.47145C4.68036 8.59647 4.5108 8.66671 4.33398 8.66671C4.15717 8.66671 3.9876 8.59647 3.86258 8.47145C3.73756 8.34642 3.66732 8.17685 3.66732 8.00004C3.66732 7.82323 3.73756 7.65366 3.86258 7.52864C3.9876 7.40361 4.15717 7.33337 4.33398 7.33337ZM5.87932 4.93604C6.00432 5.06122 6.07448 5.23094 6.07436 5.40785C6.07423 5.58475 6.00383 5.75437 5.87865 5.87937C5.75347 6.00438 5.58376 6.07454 5.40685 6.07441C5.22994 6.07429 5.06032 6.00389 4.93532 5.87871C4.87342 5.81672 4.82434 5.74316 4.79088 5.6622C4.75741 5.58125 4.74022 5.4945 4.74028 5.4069C4.74034 5.31931 4.75766 5.23258 4.79124 5.15167C4.82482 5.07077 4.874 4.99727 4.93598 4.93537C5.06117 4.81037 5.23088 4.74021 5.40779 4.74034C5.49539 4.7404 5.58211 4.75771 5.66302 4.79129C5.74392 4.82487 5.81742 4.87406 5.87932 4.93604ZM8.00065 3.66671C8.17746 3.66671 8.34703 3.73695 8.47206 3.86197C8.59708 3.98699 8.66732 4.15656 8.66732 4.33337C8.66732 4.51019 8.59708 4.67975 8.47206 4.80478C8.34703 4.9298 8.17746 5.00004 8.00065 5.00004C7.82384 5.00004 7.65427 4.9298 7.52925 4.80478C7.40422 4.67975 7.33398 4.51019 7.33398 4.33337C7.33398 4.15656 7.40422 3.98699 7.52925 3.86197C7.65427 3.73695 7.82384 3.66671 8.00065 3.66671Z" fill="white"/>
</svg>
