<svg width="26" height="22" viewBox="0 0 26 22" fill="none" xmlns="http://www.w3.org/2000/svg">
<path d="M13.0005 1.66666C7.99064 1.66666 4.24852 4.92053 2.02365 7.58579C0.354097 9.58581 0.354096 12.4142 2.02365 14.4142C4.24852 17.0795 7.99064 20.3333 13.0005 20.3333C18.0104 20.3333 21.7525 17.0795 23.9773 14.4142C25.6469 12.4142 25.6469 9.58581 23.9773 7.58579C21.7525 4.92053 18.0104 1.66666 13.0005 1.66666Z" stroke="white" stroke-width="1.5" stroke-linecap="round" stroke-linejoin="round"/>
<path d="M13.0005 15C15.2096 15 17.0005 13.2091 17.0005 11C17.0005 8.79086 15.2096 7 13.0005 7C10.7913 7 9.00049 8.79086 9.00049 11C9.00049 13.2091 10.7913 15 13.0005 15Z" stroke="white" stroke-width="1.5" stroke-linecap="round" stroke-linejoin="round"/>
</svg>
