<svg width="31" height="30" viewBox="0 0 31 30" fill="none" xmlns="http://www.w3.org/2000/svg">
<path d="M29.805 17.8801C29.2007 20.7915 27.6986 23.4474 25.5046 25.4836C23.3105 27.5199 20.5319 28.8369 17.5494 29.2542V26.3394C19.7522 25.9519 21.7959 24.9486 23.4377 23.4488C25.0795 21.949 26.2503 20.0157 26.8111 17.8787L29.805 17.8801ZM4.20246 17.8801C4.75719 19.9925 5.90813 21.9061 7.52153 23.3987C9.13493 24.8913 11.1445 25.9016 13.3168 26.3121V29.2341C10.3637 28.7902 7.61955 27.4635 5.45446 25.433C3.28937 23.4026 1.80747 20.7659 1.20859 17.8787H4.20246V17.8801ZM24.2608 13.5605V16.4393H22.8018C21.3045 16.4393 19.8645 17.007 18.7796 18.0251C17.6947 19.0432 17.048 20.4337 16.9731 21.909L16.9658 22.1969V23.6363H14.0478V22.1969C14.0478 20.7197 13.4723 19.299 12.4404 18.2287C11.4085 17.1584 9.99901 16.5203 8.5036 16.4465L8.2118 16.4393H6.75279V13.5605H24.2608ZM15.5068 0.605957C23.0717 0.605957 29.2929 6.28725 30.0239 13.5605H27.0884C26.7323 10.778 25.3593 8.21931 23.227 6.36451C21.0947 4.50971 18.3496 3.48629 15.5068 3.48629C12.664 3.48629 9.91893 4.50971 7.7866 6.36451C5.65428 8.21931 4.28129 10.778 3.92525 13.5605H0.988281C1.7207 6.28725 7.94188 0.605957 15.5068 0.605957Z" fill="#F1F2F3"/>
</svg>
