<svg width="16" height="16" viewBox="0 0 16 16" fill="none" xmlns="http://www.w3.org/2000/svg">
<path d="M13.334 7.33333H12.6673V4.66667H13.334V2.66667H14.6673V4.66667H15.334V7.33333H14.6673V12C14.6673 12.5304 14.4566 13.0391 14.0815 13.4142C13.7065 13.7893 13.1978 14 12.6673 14C12.1369 14 11.6282 13.7893 11.2531 13.4142C10.878 13.0391 10.6673 12.5304 10.6673 12V9.33333H9.33398V12.6667H10.0007V14H1.33398V12.6667H2.00065V2.66667C2.00065 2.48986 2.07089 2.32029 2.19591 2.19526C2.32094 2.07024 2.49051 2 2.66732 2H8.66732C8.84413 2 9.0137 2.07024 9.13872 2.19526C9.26375 2.32029 9.33398 2.48986 9.33398 2.66667V8H10.6673C11.0209 8 11.3601 8.14048 11.6101 8.39052C11.8602 8.64057 12.0007 8.97971 12.0007 9.33333V12C12.0007 12.1768 12.0709 12.3464 12.1959 12.4714C12.3209 12.5964 12.4905 12.6667 12.6673 12.6667C12.8441 12.6667 13.0137 12.5964 13.1387 12.4714C13.2637 12.3464 13.334 12.1768 13.334 12V7.33333ZM8.00065 12.6667V3.33333H3.33398V12.6667H8.00065ZM6.00065 7.33333H8.00065L5.33398 11.3333V8.66667H3.33398L6.00065 4.66667V7.33333Z" fill="white"/>
</svg>
