<svg width="24" height="24" viewBox="0 0 24 24" fill="none" xmlns="http://www.w3.org/2000/svg">
<path d="M21.6351 0.598215C21.3505 0.621262 21.0713 0.695578 20.8081 0.818265H20.8046C20.552 0.929771 19.3509 1.49223 17.525 2.34481L10.9819 5.41269C6.28691 7.6132 1.67165 9.78016 1.67165 9.78016L1.7266 9.75648C1.7266 9.75648 1.4084 9.87292 1.07602 10.1265C0.870672 10.272 0.693973 10.4623 0.556611 10.686C0.393521 10.9524 0.26234 11.36 0.31109 11.7813C0.390862 12.4938 0.805677 12.9211 1.10349 13.1569C1.40486 13.3957 1.69203 13.5072 1.69203 13.5072H1.69913L6.02721 15.1305C6.22132 15.8242 7.34611 19.941 7.61645 20.8893C7.77599 21.4557 7.93111 21.8099 8.12522 22.0803C8.21917 22.2185 8.32908 22.3339 8.46115 22.4267C8.5298 22.4711 8.60301 22.5063 8.67919 22.5313L8.63487 22.5194C8.64817 22.5234 8.6588 22.5352 8.66856 22.5392C8.70401 22.55 8.72794 22.554 8.77314 22.5619C9.4583 22.7928 10.0087 22.3191 10.0087 22.3191L10.0398 22.2915L12.5951 19.7012L16.878 23.3592L16.9755 23.4056C17.8681 23.8417 18.7721 23.599 19.2499 23.1707C19.7312 22.7395 19.9182 22.1879 19.9182 22.1879L19.9492 22.0991L23.2589 3.22304C23.3528 2.75728 23.3768 2.32112 23.2731 1.8978C23.1661 1.46937 22.9192 1.10089 22.5808 0.864644C22.2967 0.672336 21.9672 0.579514 21.6351 0.598215ZM21.5456 2.6211C21.542 2.68327 21.5526 2.67636 21.5278 2.79576V2.80662L18.2492 21.4863C18.235 21.5129 18.2111 21.5711 18.1455 21.6294C18.0764 21.6905 18.0214 21.729 17.7333 21.6017L12.495 17.1307L9.33066 20.3416L9.99543 15.615L18.5541 6.73398C18.9069 6.36888 18.789 6.29191 18.789 6.29191C18.8138 5.84391 18.2563 6.16067 18.2563 6.16067L7.46399 13.6039L7.46045 13.5842L2.28767 11.6452V11.6412L2.27437 11.6383C2.28344 11.6349 2.29232 11.631 2.30096 11.6264L2.32933 11.6106L2.3568 11.5998C2.3568 11.5998 6.97561 9.43282 11.6706 7.23231C14.0213 6.13008 16.3896 5.01996 18.2111 4.16343C19.2913 3.65722 20.3727 3.15396 21.4551 2.65367C21.5278 2.62209 21.4933 2.6211 21.5456 2.6211Z" fill="white"/>
</svg>
